# xmcd
#
# Track frame offsets:
#	150
#	17818
#	39220
#	57276
#	75350
#	87854
#	103496
#	120073
#	139493
#	154187
#	170964
#	187294
#
# Disc length: 2693 seconds
#
# Revision: 4
# Processed by: cddbd v1.5.2PL0 Copyright (c) Steve Scherf et al.
# Submitted via: EZCDAudioConverter 2.4.0.1
#
DISCID=9e0a830c
DTITLE=Chitãozinho and  Xororó - Aqui o Sistema é Bruto
DYEAR=2004
DGENRE=sertanejo
TTITLE0=Chitãozinho and  Xororó - Sistema Bruto
TTITLE1=Chitãozinho and  Xororó Feat. Zé Ramalho - Sinônimos
TTITLE2=Chitãozinho and  Xororó - Essência Do Prazer
TTITLE3=Chitãozinho and  Xororó - Sem Destino
TTITLE4=Chitãozinho and  Xororó - SE
TTITLE5=Chitãozinho and  Xororó - Só Sei Que Dói
TTITLE6=Chitãozinho and  Xororó - Quero Você
TTITLE7=Chitãozinho and  Xororó - Mulheres
TTITLE8=Chitãozinho and  Xororó - Amor Infinito
TTITLE9=Chitãozinho and  Xororó - De Vez Em Quando Vem
TTITLE10=Chitãozinho and  Xororó - Tradição Gaúcha (part. Grupo Tradição)
TTITLE11=Chitãozinho and  Xororó - Zé Bento
EXTD=
EXTT0=
EXTT1=
EXTT2=
EXTT3=
EXTT4=
EXTT5=
EXTT6=
EXTT7=
EXTT8=
EXTT9=
EXTT10=
EXTT11=
PLAYORDER=
